<svg width="361" height="64" viewBox="0 0 361 64" fill="none" xmlns="http://www.w3.org/2000/svg">
<g filter="url(#filter0_d_281_146)">
<path d="M22 17.7556C22 13.4723 25.4723 10 29.7556 10H345.244C349.528 10 353 13.4723 353 17.7556V45.2444C353 49.5277 349.528 53 345.244 53H29.7556C25.4723 53 22 49.5277 22 45.2444V17.7556Z" fill="#EB1212"/>
</g>
<path d="M49.3182 14.7881C44.7886 10.3541 38.6831 7.90106 32.3448 7.96866C26.0066 8.03627 19.9548 10.619 15.5208 15.1486C11.0868 19.6782 8.63377 25.7837 8.70138 32.1219C8.76898 38.4602 11.3517 44.5119 15.8813 48.9459C20.4109 53.38 26.5164 55.833 32.8546 55.7654C39.1929 55.6978 45.2447 53.1151 49.6787 48.5855C54.1127 44.0559 56.5657 37.9504 56.4981 31.6121C56.4305 25.2739 53.8478 19.2221 49.3182 14.7881Z" fill="#EB1212" stroke="white" stroke-width="2.53009"/>
<rect x="30" y="21" width="5.26061" height="16.0623" rx="2.63031" fill="white"/>
<rect x="30" y="37.8165" width="5.26061" height="5.42487" rx="2.63031" fill="white"/>
<path d="M76.2334 31.3322V29.0875L79.3401 27.2558H81.2436V39H79.1066V29.5903L76.2334 31.3322ZM97.9169 35.5522L94.5768 32.5712C94.3374 32.9184 94.2177 33.3434 94.2177 33.8462C94.2177 34.4807 94.4152 34.9955 94.8103 35.3906C95.2173 35.7736 95.7381 35.9652 96.3726 35.9652C96.9352 35.9652 97.45 35.8275 97.9169 35.5522ZM103.071 27.1481V28.8541H101.167V39H99.0482V36.4321C98.294 37.2222 97.3123 37.6173 96.1032 37.6173C95.0138 37.6173 94.074 37.2581 93.2839 36.5398C92.5057 35.8215 92.1167 34.9057 92.1167 33.7923C92.1167 32.679 92.4878 31.7572 93.23 31.0269C93.9842 30.2966 94.9719 29.9315 96.193 29.9315C96.7437 29.9315 97.2285 29.9854 97.6475 30.0931V31.9248C97.2644 31.7931 96.8335 31.7272 96.3546 31.7272C95.9715 31.7272 95.6543 31.7871 95.4029 31.9068L98.707 34.798C98.9345 34.4628 99.0482 34.0856 99.0482 33.6666V28.8541H90.8596V27.1481H103.071ZM107.613 32.7867H110.989V28.8541H108.027V31.0987C108.027 31.7691 107.889 32.3318 107.613 32.7867ZM114.994 27.1481V28.8541H113.091V39H110.989V34.4927H108.17C107.236 34.4927 106.392 34.4388 105.638 34.3311L108.96 39H106.428L102.998 34.0797V32.5712H104.237C105.363 32.5712 105.925 32.0684 105.925 31.0628V28.8541H102.101V27.1481H114.994ZM118.82 25.5678C118.461 25.5678 118.156 25.4481 117.904 25.2087C117.665 24.9573 117.545 24.652 117.545 24.2929C117.545 23.9337 117.665 23.6344 117.904 23.395C118.156 23.1436 118.461 23.0179 118.82 23.0179C119.191 23.0179 119.496 23.1436 119.736 23.395C119.987 23.6344 120.113 23.9337 120.113 24.2929C120.113 24.652 119.987 24.9573 119.736 25.2087C119.496 25.4481 119.191 25.5678 118.82 25.5678ZM116.162 24.2749L118.03 27.1481H119.933V28.8541H118.03V39H115.929V28.8541H114.025V27.1481H115.767L114.456 25.2087C114.085 24.658 113.594 24.3827 112.984 24.3827C112.661 24.3827 112.313 24.4365 111.942 24.5443V22.7665C112.445 22.6827 112.846 22.6408 113.146 22.6408C114.45 22.6528 115.456 23.1975 116.162 24.2749ZM138.671 28.8541H132.098V31.0628C132.649 30.548 133.308 30.2906 134.074 30.2906C135.115 30.2906 135.953 30.6079 136.588 31.2424C137.222 31.8769 137.54 32.6969 137.54 33.7026C137.54 34.792 137.174 35.6599 136.444 36.3064C135.726 36.9529 134.816 37.2761 133.715 37.2761C133.523 37.2761 133.385 37.2701 133.302 37.2581V35.5522C133.373 35.5641 133.481 35.5701 133.625 35.5701C134.164 35.5701 134.595 35.4025 134.918 35.0673C135.253 34.7201 135.421 34.2772 135.421 33.7385C135.421 33.2357 135.265 32.8167 134.954 32.4815C134.654 32.1462 134.247 31.9786 133.733 31.9786C133.266 31.9786 132.877 32.1462 132.565 32.4815C132.254 32.8047 132.098 33.2237 132.098 33.7385V39H129.979V36.7014C129.441 37.2043 128.782 37.4557 128.004 37.4557C126.975 37.4557 126.137 37.1384 125.49 36.5039C124.856 35.8694 124.538 35.0494 124.538 34.0437C124.538 32.9543 124.898 32.0864 125.616 31.4399C126.346 30.7935 127.262 30.4702 128.363 30.4702C128.543 30.4702 128.681 30.4762 128.776 30.4882V32.1941C128.704 32.1822 128.597 32.1762 128.453 32.1762C127.914 32.1762 127.477 32.3498 127.142 32.6969C126.819 33.0321 126.657 33.4691 126.657 34.0078C126.657 34.5106 126.807 34.9296 127.106 35.2649C127.418 35.6001 127.837 35.7677 128.363 35.7677C128.818 35.7677 129.201 35.606 129.513 35.2828C129.824 34.9476 129.979 34.5226 129.979 34.0078V28.8541H123.425V27.1481H138.671V28.8541ZM125.996 24.5443V22.7665C126.499 22.6827 126.906 22.6408 127.217 22.6408C128.522 22.6528 129.521 23.1975 130.216 24.2749L132.173 27.2738H129.91L128.51 25.2087C128.163 24.658 127.678 24.3827 127.055 24.3827C126.72 24.3827 126.367 24.4365 125.996 24.5443ZM149.211 35.5522L145.871 32.5712C145.632 32.9184 145.512 33.3434 145.512 33.8462C145.512 34.4807 145.71 34.9955 146.105 35.3906C146.512 35.7736 147.032 35.9652 147.667 35.9652C148.23 35.9652 148.744 35.8275 149.211 35.5522ZM154.365 27.1481V28.8541H152.462V39H150.343V36.4321C149.588 37.2222 148.607 37.6173 147.398 37.6173C146.308 37.6173 145.368 37.2581 144.578 36.5398C143.8 35.8215 143.411 34.9057 143.411 33.7923C143.411 32.679 143.782 31.7572 144.524 31.0269C145.279 30.2966 146.266 29.9315 147.487 29.9315C148.038 29.9315 148.523 29.9854 148.942 30.0931V31.9248C148.559 31.7931 148.128 31.7272 147.649 31.7272C147.266 31.7272 146.949 31.7871 146.697 31.9068L150.001 34.798C150.229 34.4628 150.343 34.0856 150.343 33.6666V28.8541H142.154V27.1481H154.365ZM153.395 28.8541V27.1481H159.303V28.8541H157.399V39H155.298V28.8541H153.395ZM159.436 34.2413V32.5712H160.729C161.962 32.5712 162.578 32.0744 162.578 31.0808V28.8541H158.34V27.1481H166.511V28.8541H164.679V31.2065C164.679 32.0325 164.452 32.7089 163.997 33.2357C163.554 33.7504 162.931 34.0557 162.129 34.1515C162.057 34.1754 161.974 34.1874 161.878 34.1874L165.613 39H163.081L159.436 34.2413ZM158.579 24.5443V22.7665C159.081 22.6827 159.488 22.6408 159.8 22.6408C161.105 22.6528 162.104 23.1975 162.799 24.2749L164.756 27.2738H162.493L161.093 25.2087C160.746 24.658 160.261 24.3827 159.638 24.3827C159.303 24.3827 158.95 24.4365 158.579 24.5443ZM170.002 28.8541V27.1481H181.387V28.8541H179.484V39H177.419V34.1874H174.24V36.468H172.444L171.87 35.193C171.534 34.4388 171.367 33.8941 171.367 33.5589C171.367 33.0441 171.63 32.7209 172.157 32.5892V28.8541H170.002ZM177.419 28.8541H174.24V32.4815H177.419V28.8541ZM173.397 24.5443V22.7665C173.9 22.6827 174.307 22.6408 174.619 22.6408C175.923 22.6528 176.929 23.1975 177.635 24.2749L179.575 27.2738H177.312L175.929 25.2087C175.558 24.658 175.067 24.3827 174.457 24.3827C174.134 24.3827 173.781 24.4365 173.397 24.5443ZM179.395 25.2087C179.144 24.9573 179.018 24.652 179.018 24.2929C179.018 23.9337 179.144 23.6344 179.395 23.395C179.635 23.1436 179.934 23.0179 180.293 23.0179C180.652 23.0179 180.958 23.1436 181.209 23.395C181.46 23.6344 181.586 23.9337 181.586 24.2929C181.586 24.652 181.46 24.9573 181.209 25.2087C180.958 25.4481 180.652 25.5678 180.293 25.5678C179.934 25.5678 179.635 25.4481 179.395 25.2087ZM190.386 32.7867H193.762V28.8541H190.799V31.0987C190.799 31.7691 190.661 32.3318 190.386 32.7867ZM197.767 27.1481V28.8541H195.863V39H193.762V34.4927H190.943C190.009 34.4927 189.165 34.4388 188.411 34.3311L191.733 39H189.201L185.771 34.0797V32.5712H187.01C188.135 32.5712 188.698 32.0684 188.698 31.0628V28.8541H184.873V27.1481H197.767ZM195.703 42.1964V43.8126C195.415 43.9203 195.092 43.9742 194.733 43.9742C193.847 43.9742 193.123 43.7467 192.56 43.2918C191.985 42.8369 191.698 42.1725 191.698 41.2986C191.698 40.5803 191.973 39.9697 192.524 39.4669C193.075 38.9641 193.787 38.7127 194.661 38.7127C195.463 38.7127 196.175 38.8863 196.798 39.2334C197.42 39.5926 197.905 40.0475 198.253 40.5982C198.6 41.1609 198.857 41.7475 199.025 42.358C199.204 42.9686 199.294 43.5791 199.294 44.1897H197.337C197.337 43.1601 197.103 42.2742 196.636 41.532C196.157 40.7898 195.529 40.4186 194.751 40.4186C194.44 40.4186 194.188 40.5024 193.997 40.67C193.805 40.8496 193.709 41.0771 193.709 41.3524C193.709 41.6517 193.823 41.8911 194.05 42.0707C194.278 42.2623 194.565 42.358 194.912 42.358C195.176 42.358 195.439 42.3042 195.703 42.1964ZM209.44 27.1481V28.8541H207.536V39H205.453V35.8395C204.807 36.8092 203.718 37.3 202.185 37.312C201.168 37.312 200.348 37.0367 199.725 36.486C199.102 35.9353 198.791 35.2409 198.791 34.4029C198.791 33.4571 199.174 32.7748 199.94 32.3558H197.696V30.6139H204.017V32.3558C201.886 32.3558 200.82 32.9543 200.82 34.1515C200.82 34.6184 200.982 34.9775 201.305 35.2289C201.64 35.4803 202.095 35.606 202.67 35.606C203.52 35.606 204.196 35.3427 204.699 34.8159C205.202 34.2892 205.453 33.7385 205.453 33.1638V28.8541H196.798V27.1481H209.44ZM208.477 27.1481H218.677V28.8541H216.774V39H214.655V33.2357H212.069C211.853 33.2357 211.698 33.2955 211.602 33.4152C211.506 33.523 211.458 33.7205 211.458 34.0078C211.458 34.355 211.518 34.78 211.638 35.2828H209.95C209.567 34.6004 209.375 33.8761 209.375 33.11C209.375 32.6311 209.525 32.254 209.824 31.9786C210.135 31.6913 210.59 31.5477 211.189 31.5477H214.655V28.8541H208.477V27.1481ZM217.702 28.8541V27.1481H223.61V28.8541H221.706V39H219.605V28.8541H217.702ZM227.101 27.1481H237.301V28.8541H235.397V39H233.278V33.2357H230.693C230.477 33.2357 230.321 33.2955 230.226 33.4152C230.13 33.523 230.082 33.7205 230.082 34.0078C230.082 34.355 230.142 34.78 230.262 35.2828H228.574C228.191 34.6004 227.999 33.8761 227.999 33.11C227.999 32.6311 228.149 32.254 228.448 31.9786C228.759 31.6913 229.214 31.5477 229.813 31.5477H233.278V28.8541H227.101V27.1481ZM245.196 31.6734H240.707C240.18 31.6734 239.917 31.8769 239.917 32.2839C239.917 32.691 240.12 33.0381 240.527 33.3255C241.042 33.2057 241.575 33.1459 242.126 33.1459C243.167 33.1459 243.999 33.3973 244.622 33.9001C245.256 34.4029 245.573 35.0194 245.573 35.7497C245.573 36.1807 245.514 36.5219 245.394 36.7733H243.329C243.472 36.5458 243.544 36.2405 243.544 35.8574C243.544 35.5821 243.413 35.3487 243.149 35.1571C242.898 34.9656 242.539 34.8698 242.072 34.8698C241.389 34.8698 240.863 35.0075 240.491 35.2828C240.12 35.5582 239.935 35.9053 239.935 36.3243C239.935 36.8272 240.15 37.2342 240.581 37.5454C241.024 37.8447 241.713 37.9944 242.646 37.9944C243.281 37.9944 244.077 37.8807 245.035 37.6532V39.3951C244.101 39.5986 243.269 39.7003 242.539 39.7003C241.018 39.7003 239.851 39.3651 239.037 38.6947C238.235 38.0123 237.834 37.2162 237.834 36.3064C237.834 35.3846 238.223 34.6244 239.001 34.0258C238.175 33.5469 237.762 32.8825 237.762 32.0325C237.762 31.386 237.995 30.8892 238.462 30.5421C238.941 30.1949 239.558 30.0213 240.312 30.0213H243.113V28.8541H236.325V27.1481H247.046V28.8541H245.196V31.6734ZM250.062 25.8192V27.1481H251.984V28.8541H250.08V39H247.979V28.8541H246.076V27.1481H247.961V25.909C247.961 25.4182 247.824 25.0411 247.548 24.7777C247.285 24.5024 246.926 24.3647 246.471 24.3647C245.525 24.3647 245.052 24.8795 245.052 25.909V26.3041H242.933V25.8372C242.933 24.7598 243.268 23.9457 243.939 23.395C244.609 22.8443 245.453 22.569 246.471 22.569C247.5 22.569 248.356 22.8443 249.039 23.395C249.721 23.9337 250.062 24.7418 250.062 25.8192ZM252.235 23.2154C252.594 23.2154 252.899 23.3411 253.151 23.5925C253.402 23.832 253.528 24.1312 253.528 24.4904C253.528 24.8495 253.402 25.1548 253.151 25.4062C252.899 25.6457 252.594 25.7654 252.235 25.7654C251.864 25.7654 251.559 25.6457 251.319 25.4062C251.08 25.1548 250.96 24.8495 250.96 24.4904C250.96 24.1312 251.08 23.832 251.319 23.5925C251.559 23.3411 251.864 23.2154 252.235 23.2154ZM255.475 27.1481H266.645V28.8541H264.58V31.9427H261.06C260.354 31.9427 259.797 32.1283 259.39 32.4994C258.983 32.8705 258.779 33.3733 258.779 34.0078C258.779 34.6543 258.959 35.1631 259.318 35.5342C259.677 35.8934 260.156 36.0729 260.755 36.0729C261.341 36.0729 261.82 35.9113 262.191 35.5881C262.574 35.2529 262.802 34.78 262.874 34.1695H264.921V39.1796H262.838V36.881C262.622 37.1803 262.281 37.4138 261.814 37.5814C261.347 37.749 260.886 37.8328 260.431 37.8328C259.282 37.8328 258.354 37.4736 257.648 36.7553C256.954 36.037 256.607 35.1332 256.607 34.0437C256.607 32.9304 256.984 32.0205 257.738 31.3142C258.492 30.6079 259.564 30.2547 260.952 30.2547H262.461V28.8541H255.475V27.1481ZM269.668 27.1481H271.59V28.8541H269.686V39H267.585V28.8541H265.682V27.1481H267.567V25.909C267.567 25.4182 267.429 25.0411 267.154 24.7777C266.891 24.5024 266.532 24.3647 266.077 24.3647C265.131 24.3647 264.658 24.8795 264.658 25.909V26.3041H262.539V25.8372C262.539 24.7598 262.874 23.9457 263.545 23.395C264.215 22.8443 265.059 22.569 266.077 22.569C267.106 22.569 267.962 22.8443 268.645 23.395C269.327 23.9337 269.668 24.7418 269.668 25.8192V27.1481ZM275.081 27.1481H286.484V28.8541H284.581V39H282.498V28.8541H280.073V32.8226C280.073 33.6487 279.846 34.2712 279.391 34.6902C278.948 35.1092 278.349 35.3187 277.595 35.3187C277.068 35.3187 276.572 35.2349 276.105 35.0673V33.3614C276.404 33.517 276.727 33.5948 277.074 33.5948C277.673 33.5948 277.972 33.2776 277.972 32.6431V28.8541H275.081V27.1481ZM293.632 28.8541V31.5836V31.6195H290.418C289.628 31.6195 289.233 31.8948 289.233 32.4455C289.233 32.7329 289.358 32.9424 289.61 33.074C289.873 33.1938 290.298 33.2656 290.885 33.2895C292.178 33.3135 293.123 33.5529 293.722 34.0078C294.332 34.4628 294.638 35.1571 294.638 36.0909C294.638 36.893 294.332 37.5754 293.722 38.138C293.123 38.7007 292.351 38.982 291.405 38.982C290.508 38.982 289.735 38.7785 289.089 38.3715V40.2031H287.006V35.8395H288.945C289.113 36.2944 289.4 36.6655 289.807 36.9529C290.214 37.2402 290.675 37.3838 291.19 37.3838C291.573 37.3838 291.896 37.2701 292.16 37.0426C292.423 36.8032 292.555 36.5039 292.555 36.1448C292.555 35.4624 291.968 35.1032 290.795 35.0673C288.329 35.0194 287.096 34.1814 287.096 32.5533C287.096 31.6913 287.407 31.0389 288.029 30.5959C288.664 30.141 289.472 29.9135 290.454 29.9135H291.531V28.8541H285.515V27.1481H291.046C290.663 26.6453 290.472 26.0706 290.472 25.4242C290.472 24.5503 290.759 23.8619 291.334 23.3591C291.908 22.8563 292.632 22.6049 293.506 22.6049C294.249 22.6049 294.865 22.7246 295.356 22.964V24.9034C294.889 24.6041 294.356 24.4545 293.758 24.4545C293.411 24.4545 293.135 24.5622 292.932 24.7777C292.728 24.9932 292.627 25.2686 292.627 25.6038C292.627 26.1305 292.824 26.6453 293.219 27.1481H295.661V28.8541H293.632ZM308.012 31.6734H303.523C302.996 31.6734 302.733 31.8769 302.733 32.2839C302.733 32.691 302.936 33.0381 303.343 33.3255C303.858 33.2057 304.391 33.1459 304.942 33.1459C305.983 33.1459 306.815 33.3973 307.438 33.9001C308.072 34.4029 308.389 35.0194 308.389 35.7497C308.389 36.1807 308.329 36.5219 308.21 36.7733H306.145C306.288 36.5458 306.36 36.2405 306.36 35.8574C306.36 35.5821 306.228 35.3487 305.965 35.1571C305.714 34.9656 305.355 34.8698 304.888 34.8698C304.205 34.8698 303.679 35.0075 303.307 35.2828C302.936 35.5582 302.751 35.9053 302.751 36.3243C302.751 36.8272 302.966 37.2342 303.397 37.5454C303.84 37.8447 304.528 37.9944 305.462 37.9944C306.097 37.9944 306.893 37.8807 307.851 37.6532V39.3951C306.917 39.5986 306.085 39.7003 305.355 39.7003C303.834 39.7003 302.667 39.3651 301.853 38.6947C301.051 38.0123 300.65 37.2162 300.65 36.3064C300.65 35.3846 301.039 34.6244 301.817 34.0258C300.991 33.5469 300.578 32.8825 300.578 32.0325C300.578 31.386 300.811 30.8892 301.278 30.5421C301.757 30.1949 302.374 30.0213 303.128 30.0213H305.929V28.8541H299.141V27.1481H309.862V28.8541H308.012V31.6734ZM305.945 23.9158L308.028 27.2738H305.514C304.221 26.4478 303.138 26.0347 302.264 26.0347C301.905 26.0347 301.564 26.0826 301.24 26.1784V24.5802C301.624 24.4844 301.965 24.4365 302.264 24.4365C302.875 24.4365 303.437 24.5682 303.952 24.8316C304.455 25.095 305.191 25.6516 306.161 26.5016L306.34 26.6632L304.688 24.652C304.066 23.8978 303.324 23.5207 302.462 23.5207C302.031 23.5207 301.624 23.5746 301.24 23.6823V22.0482C301.564 21.9524 302.013 21.9045 302.587 21.9045C304 21.9045 305.119 22.5749 305.945 23.9158Z" fill="white"/>
<defs>
<filter id="filter0_d_281_146" x="14" y="4" width="347" height="59" filterUnits="userSpaceOnUse" color-interpolation-filters="sRGB">
<feFlood flood-opacity="0" result="BackgroundImageFix"/>
<feColorMatrix in="SourceAlpha" type="matrix" values="0 0 0 0 0 0 0 0 0 0 0 0 0 0 0 0 0 0 127 0" result="hardAlpha"/>
<feOffset dy="2"/>
<feGaussianBlur stdDeviation="4"/>
<feComposite in2="hardAlpha" operator="out"/>
<feColorMatrix type="matrix" values="0 0 0 0 0 0 0 0 0 0 0 0 0 0 0 0 0 0 0.16 0"/>
<feBlend mode="normal" in2="BackgroundImageFix" result="effect1_dropShadow_281_146"/>
<feBlend mode="normal" in="SourceGraphic" in2="effect1_dropShadow_281_146" result="shape"/>
</filter>
</defs>
</svg>
